<svg fill="none" height="57" viewBox="0 0 64 57" width="64" xmlns="http://www.w3.org/2000/svg"><g fill="#fff" stroke="#fff"><path d="m26.6062 32.8931-.0002.0002c-.6517.6666-.7183 1.7911-.0695 2.479h.0001c.6205.6578 1.6193.6709 2.253.0227.0001-.0001.0002-.0001.0003-.0002l17.8561-18.2469.0001-.0002c2.1054-2.1535 2.1053-5.6537-.001-7.80823l-.3281.32068.328-.32069c-2.0699-2.11723-5.3974-2.11837-7.4683.00002l-20.4845 20.95312.3576.3495-.3576-.3495c-3.5795 3.6616-3.6418 9.5919-.1178 13.228 3.5174 3.6294 9.21 3.6339 12.7339.0295l-.3575-.3495.3576.3495 16.8027-17.1874-.3576-.3495.3576.3495c.4101-.4196 1.0828-.4272 1.5025-.017l2.2341 2.184.3103-.3174-.3103.3174c.4196.4102.4272 1.0829.017 1.5025l.3575.3495-.3575-.3495-16.8028 17.1873c-5.62 5.7486-14.7069 5.6811-20.257-.0458l-.359.348.359-.348c-5.51383-5.6893-5.41554-14.8743.1338-20.5506l20.4844-20.95321-.3293-.32194.3293.32193c4.1316-4.22632 10.8435-4.22669 14.9754 0l.3203-.31313-.3203.31314c4.0963 4.18996 4.1012 10.95311.0002 15.14801 0 0-.0001.0001-.0001.0002l-17.8562 18.247-.0002.0002c-2.7168 2.7789-7.1526 2.7404-9.8239-.091l-.2813.2654.2813-.2654c-2.573-2.7274-2.4954-7.0607.1357-9.752l14.0371-14.3391c.4106-.4193 1.0833-.4264 1.5025-.016l.3106-.3172-.3106.3172 2.2325 2.1854c.4194.4106.4265 1.0833.0161 1.5025z"/><path d="m7.95311 3.59083-1.13183-.98436-.98436 1.13183-1.96872 2.26366-.98436 1.13183 1.13183.98435 51.95763 45.18786 1.1318.9843.9844-1.1318 1.9687-2.2637.9843-1.1318-1.1318-.9843z" stroke-width="3"/></g></svg>