<svg enable-background="new 0 0 719.992 720" height="720" viewBox="0 0 719.992 720" width="719.992" xmlns="http://www.w3.org/2000/svg"><path d="m3.102 360c0-197.115 159.783-356.898 356.89-356.898 197.111 0 356.898 159.783 356.898 356.898 0 197.11-159.787 356.897-356.897 356.897-197.108 0-356.891-159.787-356.891-356.897z" fill="#fff"/><g fill="none" stroke="#000"><path d="m3.102 360c0-197.115 159.783-356.898 356.89-356.898 197.111 0 356.898 159.783 356.898 356.898 0 197.11-159.787 356.897-356.897 356.897-197.108 0-356.891-159.787-356.891-356.897z" stroke-width="6.2045"/><path d="m16.486 360c0-189.73 153.804-343.534 343.533-343.534 189.73 0 343.529 153.804 343.529 343.534 0 189.722-153.799 343.525-343.529 343.525-189.729 0-343.533-153.803-343.533-343.525z" stroke-width="4.1994"/><path d="m118.207 360c0-133.555 108.258-241.812 241.812-241.812 133.551 0 241.809 108.258 241.809 241.812 0 133.542-108.258 241.808-241.809 241.808-133.554 0-241.812-108.266-241.812-241.808z" stroke-width="8.3988"/><path d="m132.083 360c0-125.887 102.05-227.937 227.936-227.937 125.887 0 227.933 102.05 227.933 227.937 0 125.886-102.046 227.929-227.933 227.929-125.886 0-227.936-102.043-227.936-227.929z" stroke-width="4.1994"/></g><path d="m384.045 689.019-19.649-14.492-19.86 14.212 7.711-23.173-19.645-14.491 24.419.17 7.711-23.162 7.373 23.274 24.42.178-19.858 14.209z"/><path d="m74.935 241.848-9.666 28.648 10.82 3.652 8.88-26.318 9.1 3.064-8.883 26.318 13.325 4.496 10.1-29.924 9.097 3.064-13.83 40.979-51.439-17.346 13.399-39.702z"/><path d="m118.362 233.633 5.801-10.033c4.849-8.385-1.572-15.858-9.287-20.324-13.879-8.016-19.002-1.719-21.543 2.677l-5.72 9.898 30.749 17.782 8.02 4.856-5.747 9.938-46.975-27.163 12.59-21.791c9.616-16.632 25.083-12.271 33.978-7.125 10.081 5.824 22.182 18.418 12.764 34.71l-6.611 11.432z"/><path d="m100.13 317.347-1.689 11.85-44.236-4.701-2.44 17.136-9.503-1.015 6.564-46.118 9.511 1.007-2.444 17.143z"/><path d="m156.747 167.505c2.165 2.115 7.304 5.139 14.766-2.106 4.043-3.919 7.648-9.209 3.652-13.333-2.951-3.044-6.816-.871-12.098 2.351l-5.333 3.28c-8.024 4.949-15.773 9.724-24.095 1.15-4.206-4.337-9.182-14.371 4.093-27.247 12.528-12.16 23.472-7.606 28.162-2.885l-8.206 7.958c-1.913-1.51-6.591-4.976-14.058 2.266-3.249 3.148-6.018 8.051-2.594 11.579 2.947 3.036 6.2 1.142 8.279-.132l12.233-7.338c6.847-4.117 14.081-6.917 20.866.085 11.37 11.723-.163 24.913-3.749 28.394-14.925 14.479-25.436 8.771-30.121 3.942z"/><path d="m96.726 350.829-.178 11.827-54.646 1.545.17-11.834z"/><path d="m85.178 430.884c13.806-3.92 22.667 2.932 27.34 16.474 1.708 4.941 3.079 12.602-.457 18.863-2.207 3.83-6.057 6.153-11.257 7.796l-34.756 9.867-3.954-11.451 34.024-9.654c7.304-2.072 9.02-7.323 7.203-12.566-2.657-7.703-7.393-9.81-13.751-8.005l-34.532 9.806-3.962-11.456z"/><path d="m43.315 389.229-1.402-11.086 53.972-3.582 1.499 11.88-35.546 25.757.019.156 38.482-2.553 1.406 11.088-53.973 3.582-1.584-12.517 34.73-25.059-.02-.159z"/><path d="m219.343 137.64-9.902 6.61-24.827-37.149-14.321 9.568-5.332-7.985 38.543-25.748 5.337 7.985-14.321 9.569z"/><path d="m243.752 101.109 13.389-5.634-14.84-17.039-.145.062 1.596 22.611.709 9.872.678 11.846-11.556 4.864-2.323-57.895 12.655-5.325 39.555 42.223-11.924 5.019-7.706-8.896-19.379 8.164z"/><path d="m312.165 101.013-11.652 2.459-9.201-43.722-16.854 3.555-1.979-9.398 45.36-9.566 1.978 9.399-16.857 3.551z"/><path d="m374.352 51.451-30.218.779.294 11.416 27.762-.72.252 9.6-27.766.716.36 14.058 31.573-.813.248 9.596-43.238 1.119-1.401-54.266 41.893-1.089z"/><path d="m395.12 81.658c-.406 2.997.229 8.922 10.491 10.611 5.564.91 11.958.654 12.888-5.015.689-4.175-3.357-5.987-9.097-8.307l-5.805-2.328c-8.76-3.508-17.214-6.885-15.285-18.673.983-5.964 6.076-15.932 24.331-12.935 17.233 2.827 20.091 14.321 19.092 20.9l-11.277-1.847c.078-2.444.066-8.268-10.2-9.949-4.461-.732-10.045-.039-10.843 4.81-.682 4.175 2.772 5.662 5.038 6.572l13.183 5.453c7.385 3.052 13.94 7.191 12.365 16.815-2.646 16.11-20.107 14.7-25.045 13.891-20.524-3.365-22.201-15.208-21.113-21.845z"/><path d="m475.751 122.606-10.909-4.96 22.232-38.653-15.784-7.172 4.771-8.306 42.49 19.308-4.779 8.307-15.785-7.176z"/><path d="m529.324 131.691 7.986-21.136-.128-.089-19.475 12.911 11.617 8.314-3.283 9.372-16.823-12.036-10.274 6.638-10.03-7.18 50.716-31.589 10.982 7.861-18.414 54.712-10.347-7.408 4.19-10.998z"/><path d="m574.835 201.921-9.987-10.55 6.033-20.57-21.36 4.376-9.55-10.093 32.808-5.692 7.33-30.869 9.767 10.313-5.758 19.441 19.89-4.508 9.437 9.976-30.891 5.301z"/><path d="m634.411 234.156c2.439-2.344 7.024-6.793 2.475-15.518-2.646-5.065-9.751-10.848-23.359-3.748-8.647 4.507-14.554 12.144-9.883 21.086 3.04 5.84 8.322 8.275 14.882 6.467l5.511 10.553c-11.56 3.342-22.611-.02-29.223-12.687-7.013-13.442-3.392-27.589 13.226-36.259 16.83-8.771 30.732-3.044 37.525 9.972 7.892 15.126 1.165 26.419-5.65 30.694z"/><path d="m624.129 289.17c1.696 6.208 7.723 13.941 22.376 9.945 14.658-4.001 15.928-13.729 14.232-19.933-1.688-6.2-7.719-13.934-22.38-9.938-14.654 4.002-15.917 13.73-14.228 19.926l-9.263 2.529c-1.982-7.273-4.214-27.229 20.358-33.939 24.575-6.703 32.789 11.625 34.775 18.897 1.982 7.277 4.214 27.232-20.358 33.943-24.579 6.704-32.793-11.625-34.775-18.901z"/><path d="m645.336 368.88c-14.271.747-20.866-7.967-21.621-22.314-.278-5.228.519-13.062 5.611-18.418 3.152-3.265 7.475-4.686 12.899-5.131l35.927-1.89.643 12.129-35.175 1.851c-7.548.399-10.63 5.17-10.336 10.72.434 8.163 4.388 11.292 10.951 10.951l35.714-1.886.639 12.129z"/><path d="m654.006 393.517 14.244 1.422-2.204 14.901c-1.034 7.01-5.387 7.946-8.21 7.668-5.267-.527-6.827-3.753-5.901-9.973l2.071-14.018-8.977-.898-1.827 12.354c-1.31 8.842-4.194 9.039-11.467 8.311-5.491-.542-8.307-.341-10.952.205l-1.955 13.229 1.413.135c1.263-2.459 3.195-2.265 10.982-1.49 9.941.995 11.951-1.395 14.577-5.898.94 5.832 5.518 9.523 11.381 10.104 4.597.461 15.475-1.281 17.725-16.497l4.283-28.924-53.274-5.317-1.735 11.711 20.85 2.079z"/><path d="m608.256 455.482 4.008-11.257 42.536 13.213 5.798-16.292 9.138 2.842-15.59 43.846-9.143-2.839 5.793-16.292z"/><path d="m300.481 281.061c-16.814 2.181-14.224 6.277-14.224 34.938v71.256c0 21.834 0 73.157-56.562 73.157-54.167 0-54.167-53.236-54.167-69.61v-85.177c0-20.196 2.196-23.201-14.406-24.564v-5.189h56.559v5.189c-17.252 1.639-19.87 5.186-19.87 24.564v87.354c0 17.477 0 55.421 37.994 55.421 17.04 0 29.481-8.737 35.817-21.566 2.839-6.011 5.02-15.015 5.02-37.127v-73.707c0-29.211-5.236-33.85-20.525-34.938v-5.189h44.364z"/><path d="m547.692 330.196h-6.819c-4.644-22.384-22.113-46.955-50.781-46.955-13.647 0-27.569 8.462-27.569 25.389 0 40.948 91.18 46.409 91.18 102.368 0 23.204-18.564 49.414-57.601 49.414-20.749 0-34.129-9.283-42.315-9.283-5.728 0-8.462 4.64-8.462 9.008h-6.002l-8.191-57.876h6.278c5.185 12.83 19.106 48.318 55.962 48.318 21.838 0 32.763-15.56 32.763-30.299 0-15.557-4.376-24.839-44.504-48.318-25.114-14.472-42.583-26.48-42.583-53.508 0-31.116 24.839-46.404 49.41-46.404 16.377 0 31.124 9.278 37.943 9.278 7.645 0 9.012-6.273 9.554-9.278h5.735z"/><path d="m355.751 162.401-.189-20.664c0-2.331 1.882-4.213 4.214-4.213h3.841c2.332 0 4.222 1.882 4.222 4.213l.035 20.664.085 4.817h9.03c1.298 0 1.743.864 1.743 1.724 0 .863.069 6.971.069 6.971l9.189-.027-.108-11.738c0-4.194 2.1-4.194 2.1-4.194l9.976-.058s.615 5.975 1.905 7.056c1.297 1.073 4.337 2.382 13.79 2.382h4.407s4.202 6.39 4.202 11.114c0 4.717-4.202 11.114-4.202 11.114h-4.407c-9.453 0-10.204.491-12.493 1.519-2.28 1.021-3.021 7.748-3.021 7.748l-8.396.105c-3.679 0-3.679-2.096-3.679-2.096l-.074-12.113-9.189-.027s-.069 6.97-.069 7.833c0 .864-.445 1.724-1.743 1.724-1.289 0-5.15 0-5.15 0s-1.015-.231-1.015 1.925c0 1.076-.093 14-.093 14l.047 302.937-.031 55.138c0 2.331-1.894 4.217-4.221 4.217h-3.842c-2.331 0-4.218-1.886-4.218-4.217l-.026-55.138-5.492-302.937c.104-5.926-.131-11.719-.143-14.236-.012-2.266-1.213-1.73-1.213-1.73-2.958-.26-4.41-.125-6.97-.031-17.938.646-27.02 9.275-33.425 19.451-4.957-7.539-8.419-16.957-8.384-34.969.038-18.101 4.934-26.314 8.384-31.693 6.25 11.846 21.578 18.41 32.777 18.372 3.017-.012 11.738 0 11.738 0z"/><path d="m355.751 162.401-.189-20.664c0-2.331 1.882-4.213 4.214-4.213h3.841c2.332 0 4.222 1.882 4.222 4.213l.035 20.664.085 4.817h9.03c1.298 0 1.743.864 1.743 1.724 0 .863.069 6.971.069 6.971l9.189-.027-.108-11.738c0-4.194 2.1-4.194 2.1-4.194l9.976-.058s.615 5.975 1.905 7.056c1.297 1.073 4.337 2.382 13.79 2.382h4.407s4.202 6.39 4.202 11.114c0 4.717-4.202 11.114-4.202 11.114h-4.407c-9.453 0-10.204.491-12.493 1.519-2.28 1.021-3.021 7.748-3.021 7.748l-8.396.105c-3.679 0-3.679-2.096-3.679-2.096l-.074-12.113-9.189-.027s-.069 6.97-.069 7.833c0 .864-.445 1.724-1.743 1.724-1.289 0-5.15 0-5.15 0s-1.015-.231-1.015 1.925c0 1.076-.093 14-.093 14l.047 302.937-.031 55.138c0 2.331-1.894 4.217-4.221 4.217h-3.842c-2.331 0-4.218-1.886-4.218-4.217l-.026-55.138-5.492-302.937c.104-5.926-.131-11.719-.143-14.236-.012-2.266-1.213-1.73-1.213-1.73-2.958-.26-4.41-.125-6.97-.031-17.938.646-27.02 9.275-33.425 19.451-4.957-7.539-8.419-16.957-8.384-34.969.038-18.101 4.934-26.314 8.384-31.693 6.25 11.846 21.578 18.41 32.777 18.372 3.017-.012 11.738 0 11.738 0z" fill="none" stroke="#000" stroke-width="3.4469"/><path d="m388.196 177.213v7.757m-9.48-7.757v7.757m-22.404-17.666h10.767m-13.353 28.866h16.37" fill="none" stroke="#000" stroke-linecap="round" stroke-width="2.6852"/><path d="m334.034 212.609c-7.327 0-7.471 5.166-7.471 7.102 0 1.937.12 7.475 10.092 7.475l1.182-.531c4.202 0 8.271 1.84 8.271 1.84s12.331-3.408 19.944 0c0 0 6.563-3.148 19.951 0l2.885-1.309c9.977 0 10.093-5.538 10.093-7.475 0-1.936-.144-7.102-7.467-7.102-6.9 0-57.48 0-57.48 0z" fill="#fff"/><path d="m334.034 212.609c-7.327 0-7.471 5.166-7.471 7.102 0 1.937.12 7.475 10.092 7.475l1.182-.531c4.202 0 8.271 1.84 8.271 1.84s12.331-3.408 19.944 0c0 0 6.563-3.148 19.951 0l2.885-1.309c9.977 0 10.093-5.538 10.093-7.475 0-1.936-.144-7.102-7.467-7.102-6.9 0-57.48 0-57.48 0z" fill="none" stroke="#000" stroke-width="4.1994"/><path d="m373.422 566.071c2.331 0 4.218-1.89 4.218-4.221v-4.059c0-2.331-1.887-4.222-4.218-4.222h-17.849c-2.331 0-4.213 1.891-4.213 4.222v4.059c0 2.331 1.882 4.221 4.213 4.221z"/><path d="m373.422 566.071c2.331 0 4.218-1.89 4.218-4.221v-4.059c0-2.331-1.887-4.222-4.218-4.222h-17.849c-2.331 0-4.213 1.891-4.213 4.222v4.059c0 2.331 1.882 4.221 4.213 4.221z" fill="none" stroke="#000" stroke-width="3.4469"/><path d="m370.51 145.919c2.331 0 4.222 1.894 4.222 4.221v4.059c0 2.332-1.891 4.217-4.222 4.217h-17.841c-2.331 0-4.225-1.886-4.225-4.217v-4.059c0-2.327 1.894-4.221 4.225-4.221z"/><path d="m370.51 145.919c2.331 0 4.222 1.894 4.222 4.221v4.059c0 2.332-1.891 4.217-4.222 4.217h-17.841c-2.331 0-4.225-1.886-4.225-4.217v-4.059c0-2.327 1.894-4.221 4.225-4.221z" fill="none" stroke="#000" stroke-width="3.4469"/><path d="m361.858 517.479s-15.227 2.103-16.803 0v-291.083s9.712-2.095 16.803 0z" fill="#fff"/><path d="m361.858 517.479s-15.227 2.103-16.803 0v-291.083s9.712-2.095 16.803 0z" fill="none" stroke="#000" stroke-width="4.1984"/><path d="m345.056 517.479s-15.224 2.103-16.796 0v-291.083s9.705-2.095 16.796 0z" fill="#fff"/><path d="m345.056 517.479s-15.224 2.103-16.796 0v-291.083s9.705-2.095 16.796 0z" fill="none" stroke="#000" stroke-width="4.1984"/><path d="m328.26 226.396c-10.762-3.148-19.157.79-19.157.79v290.293s12.066 3.156 19.157 0z" fill="#fff"/><path d="m328.26 226.396c-10.762-3.148-19.157.79-19.157.79v290.293s12.066 3.156 19.157 0z" fill="none" stroke="#000" stroke-width="4.1984"/><path d="m378.654 517.479s-15.228 2.103-16.796 0v-291.083s9.705-2.095 16.796 0z" fill="#fff"/><path d="m378.654 517.479s-15.228 2.103-16.796 0v-291.083s9.705-2.095 16.796 0z" fill="none" stroke="#000" stroke-width="4.1984"/><path d="m395.453 517.479s-15.223 2.103-16.799 0v-291.083s9.712-2.095 16.799 0z" fill="#fff"/><path d="m395.453 517.479s-15.223 2.103-16.799 0v-291.083s9.712-2.095 16.799 0z" fill="none" stroke="#000" stroke-width="4.1984"/><path d="m412.249 517.479s-15.224 2.103-16.796 0v-291.083s9.709-2.095 16.796 0z" fill="#fff"/><path d="m412.249 517.479s-15.224 2.103-16.796 0v-291.083s9.709-2.095 16.796 0z" fill="none" stroke="#000" stroke-width="4.1984"/><path d="m306.999 230.86s-5.777 10.499.523 26.245c0 0 83.992 37.277 104.467 42.517 0 0 4.725-24.146.522-28.34.001 0-102.886-41.471-105.512-40.422z" fill="#fff"/><path d="m306.999 230.86s-5.777 10.499.523 26.245c0 0 83.992 37.277 104.467 42.517 0 0 4.725-24.146.522-28.34.001 0-102.886-41.471-105.512-40.422z" fill="none" stroke="#000" stroke-width="4.1994"/><path d="m307.522 434.535s-3.148 9.453.526 24.153c0 0 92.393 35.167 104.986 37.27 0 0 8.403-11.548.53-24.668.001 0-98.688-38.85-106.042-36.755z" fill="#fff"/><path d="m307.522 434.535s-3.148 9.453.526 24.153c0 0 92.393 35.167 104.986 37.27 0 0 8.403-11.548.53-24.668.001 0-98.688-38.85-106.042-36.755z" fill="none" stroke="#000" stroke-width="4.1994"/><path d="m411.989 432.44s5.247 16.795.522 26.771c0 0-96.59 48.299-104.463 46.724 0 0-5.251-17.85-1.58-21.524.001-.001 45.151-24.15 105.521-51.971z" fill="#fff"/><path d="m411.989 432.44s5.247 16.795.522 26.771c0 0-96.59 48.299-104.463 46.724 0 0-5.251-17.85-1.58-21.524.001-.001 45.151-24.15 105.521-51.971z" fill="none" stroke="#000" stroke-width="4.1994"/><path d="m308.571 279.683s-9.444 14.169 0 23.096c0 0 83.989-39.377 102.892-52.493 0 0 7.35-29.924-3.676-25.199 0-.001-92.388 48.821-99.216 54.596z" fill="#fff"/><path d="m308.571 279.683s-9.444 14.169 0 23.096c0 0 83.989-39.377 102.892-52.493 0 0 7.35-29.924-3.676-25.199 0-.001-92.388 48.821-99.216 54.596z" fill="none" stroke="#000" stroke-width="4.1994"/><path d="m305.814 235.585s-2.099 6.827-1.046 12.075c0 0-.522-3.152 2.096-3.152 2.625 0 14.7 5.247 24.676 8.403 0 0-22.051-6.827-24.146-11.029-2.102-4.198-1.58-6.297-1.58-6.297z"/><path d="m305.814 235.585s-2.099 6.827-1.046 12.075c0 0-.522-3.152 2.096-3.152 2.625 0 14.7 5.247 24.676 8.403 0 0-22.051-6.827-24.146-11.029-2.102-4.198-1.58-6.297-1.58-6.297z" fill="none" stroke="#000" stroke-width=".3137"/><path d="m413.205 292.876s1.975-6.858.837-12.09c0 0 .584 3.141-2.041 3.187-2.626.047-14.794-4.991-24.819-7.97 0 0 22.166 6.44 24.343 10.604 2.164 4.163 1.68 6.269 1.68 6.269z"/><path d="m413.205 292.876s1.975-6.858.837-12.09c0 0 .584 3.141-2.041 3.187-2.626.047-14.794-4.991-24.819-7.97 0 0 22.166 6.44 24.343 10.604 2.164 4.163 1.68 6.269 1.68 6.269z" fill="none" stroke="#000" stroke-width=".3137"/><path d="m306.299 441.854s-.725 4.81.565 10.007c0 0-.67-3.121 1.947-3.245 2.626-.12 14.933 4.554 25.044 7.237 0 0-22.345-5.785-24.637-9.883-2.296-4.096-2.919-4.116-2.919-4.116z"/><path d="m306.299 441.854s-.725 4.81.565 10.007c0 0-.67-3.121 1.947-3.245 2.626-.12 14.933 4.554 25.044 7.237 0 0-22.345-5.785-24.637-9.883-2.296-4.096-2.919-4.116-2.919-4.116z" fill="none" stroke="#000" stroke-width=".3137"/><path d="m382.507 473.769c2.626.02 5.217 1.665 15.173 4.864 0 0-9.406-1.696-11.486-5.91z"/><path d="m382.507 473.769c2.626.02 5.217 1.665 15.173 4.864 0 0-9.406-1.696-11.486-5.91z" fill="none" stroke="#000" stroke-width=".3137"/><path d="m413.914 447.629s-.48-4.687-.349-7.835c0 0-1.328 3.493-2.854 5.635.682-.948-6.727 5.387-18.53 10.499 0 0 15.475-7.737 16.691-8.551 3.907-2.603 5.042.252 5.042.252z"/><path d="m413.914 447.629s-.48-4.687-.349-7.835c0 0-1.328 3.493-2.854 5.635.682-.948-6.727 5.387-18.53 10.499 0 0 15.475-7.737 16.691-8.551 3.907-2.603 5.042.252 5.042.252z" fill="none" stroke="#000" stroke-width=".3137"/></svg>