<svg height="700pt" preserveAspectRatio="xMidYMid meet" viewBox="0 0 700 700" width="700pt" xmlns="http://www.w3.org/2000/svg"><path d="m3278 6995c-2-1-42-5-89-9s-95-8-105-10-45-7-78-11c-162-19-411-77-588-136-415-138-745-315-1081-580-357-280-648-616-877-1014-47-83-170-327-170-340 0-3-9-24-20-48-57-123-157-435-186-582-2-11-10-54-19-95-29-147-36-200-52-370-15-165-8-592 12-711 2-13 6-46 9-74 9-78 23-156 51-285 31-142 109-393 175-555 49-123 173-370 235-468 30-49 55-90 55-93s4-10 10-17c5-7 46-64 91-126 188-267 410-501 679-716 92-74 370-265 386-265 4 0 15-6 23-14 27-23 262-141 398-199 298-127 610-211 943-252 244-31 692-26 907 9 21 4 53 8 70 11 213 25 586 136 848 250 122 53 328 159 364 186 13 11 28 19 33 19s14 5 21 10c7 6 62 43 122 83 245 163 480 365 660 571 33 38 68 78 78 88 39 41 185 239 252 343 219 336 406 779 481 1140 16 79 54 301 59 350 4 33 9 71 11 85 9 47 11 525 3 605-15 165-21 220-24 225-2 3-6 30-10 60-9 75-69 337-98 435-232 761-691 1402-1331 1858-71 50-137 96-147 102-271 158-360 204-529 275-226 94-418 151-725 216-11 2-38 6-60 9s-51 7-65 10c-13 2-52 7-86 11-33 3-74 8-90 10-32 5-540 14-546 9z" transform="matrix(.1 0 0 -.1 0 700)"/></svg>